Patient4_TMGait_0pt2_03_right_13_EMG.mot
version=1
nRows=29
nColumns=33
inDegrees=no
endheader
time	1LAddLong	2LGlutMax	3LGlutMed	4LIliopsoas	5LSemiMemb	6LBicFemLong	7LRecFem	8LVastMed	9LVastLat	10LGasMed	11LTibAnt	12lTibPost	13LPeroneusLong	14LSol	15LExtDigLong	16LFlexDigLong	17RAddLong	18RGlutMax	19RGlutMed	20RIliopsoas	21RSemiMemb	22RBicFemLong	23RRecFem	24RVastMed	25RVastLat	26RGasMed	27RTibAnt	28RTibPost	29RPeroneusLong	30RSol	31RExtDigLong	32RFlexDigLong
30.063	-0.003815	-0.13092	-0.071564	-0.014343	0.010834	-0.13763	-0.17563	-0.029144	-0.44434	-0.033264	0.000153	-0.005798	0.16693	-0.12375	0.021057	-0.041199	-0.005035	-0.11124	0.99777	-0.030518	0.050964	0.021973	0.026703	-0.077057	0.018463	-0.002594	0.41779	-0.007935	0.053558	-0.048828	-0.00061	-0.001984
30.064	-0.002441	-0.12375	-0.003357	-0.003967	0.019073	-0.31021	-0.085907	-0.01709	-0.35263	-0.037079	-0.000305	-0.004425	-0.13641	-0.18707	-0.061646	0.069885	-0.033569	-0.17822	0.43304	-0.037384	0.058594	0.025482	0.050507	-0.077667	0.026398	0.001831	0.38162	-0.002899	-0.026093	-0.049286	-0.000916	-0.005798
30.065	0.007172	-0.095978	-0.028839	0.008087	0.01297	-0.37048	-0.20615	0.011902	-0.168	0.041046	-0.006561	-0.00824	0.09201	-0.33203	-0.079956	0.11673	-0.08667	-0.16739	0.50415	-0.051727	0.048981	0.031433	0.019073	-0.041351	0.009003	-0.001526	0.37216	-0.002899	-0.30258	-0.017548	0.00061	-0.006256
30.066	0.011444	-0.10544	-0.053711	-0.000763	0.006409	-0.16037	-0.40756	0.016022	-0.098572	0.001068	-0.005035	-0.008392	0.22247	-0.20432	-0.02594	0.012512	-0.08606	-0.15854	0.54123	-0.095673	0.037231	0.014343	0.024872	-0.076904	0.018311	-0.016022	0.13733	-0.00473	-0.14023	0.10407	0.003052	-0.016937
30.067	0.005188	-0.077209	-0.000153	0.005951	0.009003	-0.064392	-0.50552	0.030365	-0.10376	-0.011597	-0.036163	-0.009766	0.17075	-0.058594	-0.020142	-0.005798	-0.095825	-0.10849	0.10284	-0.066071	0.028076	0.017242	0.044861	-0.05188	0.022583	-0.012207	0.28702	0.001984	-0.12589	0.13794	0.001373	-0.014038
30.068	0.011292	-0.049744	-0.10696	0.001831	0.014496	-0.050201	-0.43701	0.021362	0.083313	-0.022125	-0.048218	-0.01236	-0.083466	-0.00351	0.33661	-0.004272	-0.079803	-0.11322	0.039368	-0.12955	0.074921	0.011292	0.027466	-0.048523	0.010681	-0.010681	0.46326	0.006256	-0.024414	0.072937	0.002136	-0.009918
30.069	0.018463	0.006104	-0.20783	0.009766	0.014496	-0.11658	-0.31097	0.023041	0.18692	-0.015869	-0.060577	-0.002899	-0.072327	-0.1413	0.019531	-0.002899	-0.037231	-0.10376	0.16159	-0.081024	0.069733	0.03952	0.070343	-0.066681	-0.005341	-0.015106	0.016174	0.009766	-0.008698	0.12207	-0.002899	-0.010986
30.07	0.024872	0.038452	-0.17944	0.006561	0.012665	-0.032959	-0.16571	0.035706	0.03418	-0.019531	-0.034637	-0.010223	-0.023499	-0.22598	0.22125	-0.004272	0.031281	-0.056915	0.70923	-0.015259	0.015106	0.028076	0.15106	-0.12665	-0.020599	-0.013123	-0.006256	0.007477	-0.019379	0.062561	-0.001984	-0.002899
30.071	0.02182	0.023499	-0.092621	0.022888	0.016632	0.049744	-0.099182	0.015106	-0.090485	-0.021973	0.008392	-0.008698	0.016174	-0.095215	-0.16464	0.007324	0.11383	-0.067444	0.85938	-0.069885	0.001984	-0.041046	0.15076	-0.19104	-0.011902	-0.005798	-0.031433	0.00473	0.017395	0.039368	-0.00061	0.002899
30.072	0.024414	0.01236	0.12634	0.038605	0.020599	0.00946	-0.1831	0.036469	-0.10178	-0.010834	0.07309	-0.003662	0.26352	0.059509	-0.21118	-0.003052	0.15793	-0.061646	0.44388	0.009308	-0.019379	-0.088196	0.14557	-0.18936	-0.002594	-0.000458	-0.001373	0.007019	0.085449	-0.021515	-0.001068	-0.003967
30.073	0.026245	0.006866	0.15518	0.03479	0.016937	-0.020447	-0.24368	0.031281	-0.060425	0.02655	0.065765	-0.001068	0.40344	0.041504	-0.047913	0.010376	0.21225	-0.088654	0.073547	0.063934	-0.097198	-0.10788	0.13855	-0.1709	-0.005341	0.002594	0.18631	0.004578	0.16495	-0.084839	0.007019	-0.002136
30.074	0.016327	-0.015411	0.067902	0.016785	0.00946	-0.014801	-0.15228	0.015411	-0.036621	0.03418	0.030212	-0.014343	0.23102	-0.03952	-0.1712	-0.009308	0.1384	-0.038147	-0.085297	0.13382	-0.18524	-0.010223	0.10651	-0.16464	0.008545	0.001831	0.20538	0.00061	0.16892	-0.026245	-0.00061	-0.002289
30.075	0.009918	0.023499	0.16724	0.004425	0.006866	-0.011292	-0.15579	0.001221	0.029449	0.019379	0.029297	0.001373	-0.067444	0.006866	-0.19989	0.005035	0.046844	-0.000305	-0.21118	0.2478	-0.05661	0.00351	0.10147	-0.11658	0.024872	-0.005493	0.21881	-0.00473	0.12924	-0.002899	-0.000153	-0.005188
30.076	-0.002899	0.035553	0.11444	-0.012512	0.007782	0	-0.085754	-0.030518	0.10376	0.019989	0.012817	-0.001221	-0.39063	0.018616	-0.11169	0.002289	-0.027008	-0.019684	-0.34866	0.34576	0.11292	0.006104	0.093384	-0.089874	0.033112	-0.011292	0.19318	-0.00351	0.038757	0.11139	-0.002594	-0.007782
30.077	-0.002441	0.045776	0.012207	-0.007782	0.000153	-0.016479	-0.044708	-0.028687	0.12543	0.023956	0.011444	-0.010681	-0.39673	0.031281	-0.023499	0.021667	-0.097504	-0.052185	0.44647	0.24124	0.08316	0.044403	0.055847	-0.007172	0.030823	-0.004883	0.041809	-0.007324	-0.16174	0.075836	-0.001221	-0.000305
30.078	-0.013428	0.021973	-0.000153	-0.019531	0.002747	-0.006104	-0.034485	-0.024872	0.098572	0.027008	-0.006409	-0.00412	-0.06012	-0.057373	0.037231	0.015411	-0.13107	-0.014801	0.92514	0.11124	0.028839	0.039673	0.041504	-0.072327	0.037537	-0.002441	-0.11719	-0.00885	-0.16159	0.014343	-0.006714	-0.001831
30.079	-0.015869	0.036163	0.09903	-0.015259	-0.011444	0.10117	0.036163	-0.010834	-0.09613	0.021057	-0.016174	-0.006104	-0.029907	-0.0737	0.018005	0.017395	-0.14252	-0.064392	0.91599	-0.012207	0.027313	0.063171	0.055695	-0.022736	0.016785	-0.001984	0.00061	-0.009613	-0.036774	-0.002136	-0.000763	-0.006561
30.08	-0.015564	0.020599	0.065002	0.004883	-0.016785	0.10513	0.087891	-0.000153	-0.22339	-0.022125	-0.01236	-0.003052	-0.067139	0.03479	0.049133	0.021515	-0.14023	-0.065765	0.55771	-0.1091	0.092773	0.11307	0.060272	0.024567	0.032806	-0.012207	0.089264	-0.011902	0.046234	0.023193	-0.004578	-0.005493
30.081	-0.00824	0.031281	0.01297	-0.017395	-0.01236	0.070496	0.089569	0.010681	-0.2713	0.042725	-0.023651	-0.010986	-0.027313	0.009308	0.032806	0.018311	-0.073395	-0.10773	0.24826	-0.042267	0.13077	0.026855	0.092621	0.032196	0.020142	-0.014191	0.14145	-0.008698	0.024719	0.07309	-0.000458	-0.004883
30.082	-0.00885	0.023651	-0.000153	-0.014496	-0.006256	0.075073	0.059509	0.030823	-0.19348	0.061646	-0.013123	-0.014343	-0.020294	0.059967	-0.024414	0.02243	-0.032806	-0.14297	-0.17777	-0.034485	0.12894	0.010834	0.12985	-0.027771	-0.012054	-0.009155	0.42664	-0.010986	-0.049896	0.022736	0.00061	-0.009308
30.083	-0.005341	0.063171	-0.06958	-0.004883	0.016785	0.034485	0.054932	0.01709	-0.10788	0.065613	0.009918	0.009613	-0.002747	0.10788	-0.00824	0.02594	-0.037079	-0.070953	0.048218	-0.080566	0.11139	0.003357	0.11231	-0.045471	0.005035	-0.006409	0.52109	-0.011749	-0.076294	-0.06546	0.002594	-0.001678
30.084	0.001526	0.029144	-0.083923	0.020294	0.032196	-0.003052	0.068665	0.009766	-0.080719	0.11688	0.006104	0.014343	0.13275	0.32654	0.048523	0.032806	-0.0383	-0.066528	0.16251	-0.10956	0.079041	0.06546	0.10468	-0.092163	0.00885	-0.003662	0.24124	-0.009918	-0.084991	-0.0914	0.004272	0.003204
30.085	0.014648	0.003967	-0.080872	0.026398	0.005798	0.002899	0.029755	0.006104	-0.060577	0.054016	0.014954	-0.042114	-0.037994	0.57892	-0.006409	0.007629	-0.060272	-0.094147	0.15137	-0.091095	0.018005	0.14755	0.096283	-0.078278	0.031738	-0.003052	0.33524	-0.00885	-0.01297	-0.10849	-0.000153	-0.002136
30.086	0.013428	0.040283	0.027924	0.005798	-0.002441	-0.013733	0.01297	-0.003662	-0.075073	0.001068	0.016327	-0.020752	-0.19775	0.62347	-0.046997	0.003967	-0.06012	-0.074768	0.032654	-0.094452	0.046387	0.15198	0.082245	-0.037231	0.024872	0.001678	0.2948	-0.008545	0.037994	-0.10437	0.004883	-0.007935
30.087	0.009308	0.072784	0.15167	0.019379	-0.011902	-0.016785	-0.066681	0.024109	-0.060272	0.18875	0.005646	0.030212	-0.11963	0.70313	0.018768	0.019989	-0.057068	-0.061798	0.12131	-0.042114	-0.005798	0.076141	0.081787	-0.064545	0.036469	-0.006409	0.15549	-0.008087	0.050507	0.004883	0.001221	-0.007782
30.088	0.009918	0.075378	0.23193	0.010071	0.021973	-0.007172	-0.048065	0.047455	-0.050354	0.2977	-0.006104	-0.013733	0.003662	0.41641	0.047455	0.024261	-0.036926	-0.08316	0.063171	0.050507	-0.004883	0.073395	0.063629	-0.033875	0.044403	-0.003967	-0.086517	-0.011139	0.14633	-0.019379	0.000305	0.003815
30.089	0.012512	0.030518	0.062256	0.02182	0.030823	-0.006714	-0.0914	0.039063	-0.05188	0.13916	-0.007477	-0.034943	0.039063	0.078735	0.017853	0.10239	-0.027924	-0.10254	0.089874	0.015411	0.032043	0.079803	0.070953	-0.02594	0.040131	-0.001221	-0.47638	-0.009003	0.17136	-0.096893	0.001831	0.005035
30.09	0.009308	0.023193	-0.10849	0.024567	0.02533	-0.003815	-0.19699	0.039368	-0.049896	-0.083313	-0.005493	0.00824	0.48752	-0.21729	-0.021057	0.062256	-0.005493	-0.10132	-0.30487	0.033875	0.066528	0.085449	0.030823	-0.063324	0.032654	-0.002747	-0.63767	-0.002289	0.009918	-0.023499	0.004578	0.000458
30.091	0.021057	0.032806	-0.092773	0.00885	0.019684	0.019684	-0.26947	0.011597	0.0354	-0.26504	0.004578	0.072784	0.65384	-0.30502	-0.011902	0.047302	-0.003052	-0.015411	-0.085297	0.036926	0.040588	0.083618	0.038147	0.017395	0.043335	-0.010223	-0.71549	-0.00473	-0.052185	0.036926	0.001984	0.001068
